<?xml version="1.0" encoding="UTF-8" standalone="no"?>
<svg xmlns="http://www.w3.org/2000/svg" xmlns:xlink="http://www.w3.org/1999/xlink" style="isolation:isolate" viewBox="0 0 229.2 69.6" width="229.2pt" height="69.6pt">
    <defs>
        <clipPath id="websiteClip">
            <rect width="229.2" height="69.6"/>
        </clipPath>
    </defs>
    <g clip-path="url(#_clipPath_Vc7Usqe5f8ObP1OpJo7S7k04Rx3NETQW)" ref="logo">

        <path class="path" d=" M 48.27 38.547 L 48.27 38.547 Q 48.903 38.547 49.269 39.156 L 49.269 39.156 L 49.269 39.156 Q 49.634 39.765 49.634 40.691 L 49.634 40.691 L 49.634 40.691 Q 49.634 41.812 49.293 42.446 L 49.293 42.446 L 49.293 42.446 Q 48.952 43.08 48.221 43.567 L 48.221 43.567 L 48.221 43.567 Q 48.56 43.177 42.272 47.516 L 42.272 47.516 L 42.272 47.516 Q 40.371 57.606 37.349 63.406 L 37.349 63.406 L 37.349 63.406 Q 34.327 69.207 29.696 69.207 L 29.696 69.207 L 29.696 69.207 Q 27.21 69.207 25.651 67.671 L 25.651 67.671 L 25.651 67.671 Q 24.091 66.136 24.091 63.65 L 24.091 63.65 L 24.091 63.65 Q 24.091 61.359 25.114 59.019 L 25.114 59.019 L 25.114 59.019 Q 26.138 56.679 28.941 53.609 L 28.941 53.609 L 28.941 53.609 Q 31.744 50.538 36.862 46.589 L 36.862 46.589 L 37.008 45.663 L 37.008 45.663 Q 33.157 47.272 29.453 47.272 L 29.453 47.272 L 29.453 47.272 Q 23.993 47.272 19.85 45.151 L 19.85 45.151 L 19.85 45.151 Q 15.707 43.031 13.416 39.131 L 13.416 39.131 L 13.416 39.131 Q 11.125 35.232 11.125 30.065 L 11.125 30.065 L 11.125 30.065 Q 11.125 22.851 13.854 17.318 L 13.854 17.318 L 13.854 17.318 Q 16.584 11.786 21.385 8.739 L 21.385 8.739 L 21.385 8.739 Q 26.187 5.693 32.134 5.693 L 32.134 5.693 L 32.134 5.693 Q 37.837 5.693 40.688 8.349 L 40.688 8.349 L 40.688 8.349 Q 43.54 11.006 43.54 15.393 L 43.54 15.393 L 43.54 15.393 Q 43.54 18.269 42.492 19.999 L 42.492 19.999 L 42.492 19.999 Q 41.444 21.73 39.494 21.73 L 39.494 21.73 L 39.494 21.73 Q 38.178 21.73 37.374 21.096 L 37.374 21.096 L 37.374 21.096 Q 36.569 20.462 36.569 19.341 L 36.569 19.341 L 36.569 19.341 Q 36.569 18.854 36.764 17.684 L 36.764 17.684 L 36.764 17.684 Q 37.057 16.319 37.057 15.539 L 37.057 15.539 L 37.057 15.539 Q 37.057 13.492 35.814 12.371 L 35.814 12.371 L 35.814 12.371 Q 34.571 11.25 31.646 11.25 L 31.646 11.25 L 31.646 11.25 Q 28.088 11.25 25.041 13.297 L 25.041 13.297 L 25.041 13.297 Q 21.995 15.344 20.142 19.414 L 20.142 19.414 L 20.142 19.414 Q 18.29 23.485 18.29 29.188 L 18.29 29.188 L 18.29 29.188 Q 18.29 35.037 21.483 38.23 L 21.483 38.23 L 21.483 38.23 Q 24.676 41.422 30.72 41.422 L 30.72 41.422 L 30.72 41.422 Q 34.083 41.422 37.739 39.911 L 37.739 39.911 L 38.422 33.965 L 33.45 33.965 L 33.45 33.965 Q 32.085 33.965 31.354 33.307 L 31.354 33.307 L 31.354 33.307 Q 30.623 32.648 30.623 31.137 L 30.623 31.137 L 30.623 31.137 Q 30.623 29.773 31.354 28.993 L 31.354 28.993 L 31.354 28.993 Q 32.085 28.213 33.303 28.213 L 33.303 28.213 L 42.419 28.213 L 42.419 28.213 Q 43.491 28.213 44.198 28.92 L 44.198 28.92 L 44.198 28.92 Q 44.905 29.626 44.758 30.942 L 44.758 30.942 L 44.758 30.942 Q 44.612 32.502 43.783 38.01 L 43.783 38.01 L 43.247 41.715 L 43.247 41.715 Q 43.931 41.081 47.148 38.937 L 47.148 38.937 L 47.148 38.937 Q 47.782 38.547 48.27 38.547 L 48.27 38.547 Z "
              fill="none" stroke="#FFFFFF" stroke-width="1"/>
        <path class="path" d=" M 30.233 64.479 L 30.233 64.479 Q 31.5 64.479 33.011 61.603 L 33.011 61.603 L 33.011 61.603 Q 34.522 58.727 35.838 52.341 L 35.838 52.341 L 35.838 52.341 Q 32.134 55.51 30.501 58.069 L 30.501 58.069 L 30.501 58.069 Q 28.868 60.628 28.868 62.577 L 28.868 62.577 L 28.868 62.577 Q 28.868 64.479 30.233 64.479 L 30.233 64.479 Z "
              fill="none" stroke="#FFFFFF" stroke-width="1"/>
        <path class="path" d=" M 54.312 47.272 L 54.312 47.272 Q 52.119 47.272 50.73 45.249 L 50.73 45.249 L 50.73 45.249 Q 49.34 43.226 49.34 40.204 L 49.34 40.204 L 49.34 40.204 Q 49.34 36.548 49.828 33.502 L 49.828 33.502 L 49.828 33.502 Q 50.315 30.455 51.436 27.043 L 51.436 27.043 L 51.436 27.043 Q 51.924 25.581 52.801 24.947 L 52.801 24.947 L 52.801 24.947 Q 53.679 24.313 55.58 24.313 L 55.58 24.313 L 55.58 24.313 Q 56.652 24.313 57.066 24.654 L 57.066 24.654 L 57.066 24.654 Q 57.481 24.996 57.481 25.678 L 57.481 25.678 L 57.481 25.678 Q 57.481 26.068 56.944 28.31 L 56.944 28.31 L 56.944 28.31 Q 56.457 30.114 56.165 31.576 L 56.165 31.576 L 56.165 31.576 Q 55.19 36.694 55.19 38.4 L 55.19 38.4 L 55.19 38.4 Q 55.19 39.424 55.433 39.838 L 55.433 39.838 L 55.433 39.838 Q 55.677 40.253 56.213 40.253 L 56.213 40.253 L 56.213 40.253 Q 56.944 40.253 58.041 38.79 L 58.041 38.79 L 58.041 38.79 Q 59.138 37.328 60.381 34.355 L 60.381 34.355 L 60.381 34.355 Q 61.624 31.381 62.794 27.043 L 62.794 27.043 L 62.794 27.043 Q 63.184 25.581 63.988 24.947 L 63.988 24.947 L 63.988 24.947 Q 64.792 24.313 66.401 24.313 L 66.401 24.313 L 66.401 24.313 Q 67.522 24.313 67.961 24.581 L 67.961 24.581 L 67.961 24.581 Q 68.399 24.849 68.399 25.581 L 68.399 25.581 L 68.399 25.581 Q 68.399 26.799 67.181 32.259 L 67.181 32.259 L 67.181 32.259 Q 65.816 38.498 65.816 39.96 L 65.816 39.96 L 65.816 39.96 Q 65.816 40.886 66.206 41.398 L 66.206 41.398 L 66.206 41.398 Q 66.596 41.91 67.23 41.91 L 67.23 41.91 L 67.23 41.91 Q 68.191 41.812 69.545 40.716 L 69.545 40.716 L 69.545 40.716 Q 67.077 42.836 69.319 40.155 L 69.319 40.155 L 69.319 40.155 Q 69.904 39.473 70.635 39.473 L 70.635 39.473 L 70.635 39.473 Q 71.269 39.473 71.634 40.058 L 71.634 40.058 L 71.634 40.058 Q 72 40.643 72 41.666 L 72 41.666 L 72 41.666 L 71.074 44.688 L 71.074 44.688 L 71.074 44.688 Q 71.063 44.688 70.374 45.614 L 70.374 45.614 L 70.374 45.614 Q 67.961 47.272 64.89 47.272 L 64.89 47.272 L 64.89 47.272 Q 62.55 47.272 61.453 45.468 L 61.453 45.468 L 61.453 45.468 Q 60.357 43.665 60.357 40.399 L 60.357 40.399 L 60.357 40.399 Q 59.528 43.713 57.871 45.493 L 57.871 45.493 L 57.871 45.493 Q 56.213 47.272 54.312 47.272 L 54.312 47.272 Z "
              fill="none" stroke="#FFFFFF" stroke-width="1"/>
        <path class="path" d=" M 78.246 21.096 L 78.246 21.096 Q 76.198 21.096 75.175 20.146 L 75.175 20.146 L 75.175 20.146 Q 74.151 19.195 74.151 17.489 L 74.151 17.489 L 74.151 17.489 Q 74.151 15.783 75.492 14.637 L 75.492 14.637 L 75.492 14.637 Q 76.832 13.492 78.831 13.492 L 78.831 13.492 L 78.831 13.492 Q 80.634 13.492 81.755 14.369 L 81.755 14.369 L 81.755 14.369 Q 82.876 15.247 82.876 16.855 L 82.876 16.855 L 82.876 16.855 Q 82.876 18.805 81.609 19.951 L 81.609 19.951 L 81.609 19.951 Q 80.342 21.096 78.246 21.096 L 78.246 21.096 Z "
              fill="none" stroke="#FFFFFF" stroke-width="1"/>
        <path class="path" d=" M 77.856 47.272 L 77.856 47.272 Q 74.687 47.272 73.249 45.03 L 73.249 45.03 L 73.249 45.03 Q 71.811 42.787 71.811 39.083 L 71.811 39.083 L 71.811 39.083 Q 71.811 36.889 72.372 33.453 L 72.372 33.453 L 72.372 33.453 Q 72.933 30.016 73.81 27.043 L 73.81 27.043 L 73.81 27.043 Q 74.249 25.483 74.98 24.898 L 74.98 24.898 L 74.98 24.898 Q 75.711 24.313 77.32 24.313 L 77.32 24.313 L 77.32 24.313 Q 79.806 24.313 79.806 25.971 L 79.806 25.971 L 79.806 25.971 Q 79.806 27.189 78.879 31.625 L 78.879 31.625 L 78.879 31.625 Q 77.71 36.987 77.71 38.888 L 77.71 38.888 L 77.71 38.888 Q 77.71 40.35 78.099 41.13 L 78.099 41.13 L 78.099 41.13 Q 78.489 41.91 79.416 41.91 L 79.416 41.91 L 79.416 41.91 Q 80.293 41.91 81.609 40.691 L 81.609 40.691 L 81.609 40.691 Q 80.25 41.906 82.685 39.57 L 82.685 39.57 L 82.685 39.57 Q 83.27 38.888 84.001 38.888 L 84.001 38.888 L 84.001 38.888 Q 84.634 38.888 85 39.473 L 85 39.473 L 85 39.473 Q 85.366 40.058 85.366 41.081 L 85.366 41.081 L 85.366 41.081 Q 85.366 43.031 84.439 44.103 L 84.439 44.103 L 84.439 44.103 Q 82.048 47.272 77.856 47.272 L 77.856 47.272 Z "
              fill="none" stroke="#FFFFFF" stroke-width="1"/>
        <path class="path" d=" M 98.718 39.473 L 98.718 39.473 Q 99.352 39.473 99.718 40.058 L 99.718 40.058 L 99.718 40.058 Q 100.083 40.643 100.083 41.666 L 100.083 41.666 L 100.083 41.666 Q 100.083 43.616 99.157 44.688 L 99.157 44.688 L 99.157 44.688 Q 100 43.625 98.207 45.614 L 98.207 45.614 L 98.207 45.614 Q 95.745 47.272 92.625 47.272 L 92.625 47.272 L 92.625 47.272 Q 88.336 47.272 86.264 43.372 L 86.264 43.372 L 86.264 43.372 Q 84.193 39.473 84.193 33.282 L 84.193 33.282 L 84.193 33.282 Q 84.193 27.335 85.728 19.731 L 85.728 19.731 L 85.728 19.731 Q 87.263 12.127 90.261 6.668 L 90.261 6.668 L 90.261 6.668 Q 93.259 1.208 97.402 1.208 L 97.402 1.208 L 97.402 1.208 Q 99.742 1.208 101.082 3.378 L 101.082 3.378 L 101.082 3.378 Q 102.423 5.547 102.423 9.592 L 102.423 9.592 L 102.423 9.592 Q 102.423 15.393 99.206 23.046 L 99.206 23.046 L 99.206 23.046 Q 95.989 30.699 90.481 38.205 L 90.481 38.205 L 90.481 38.205 Q 90.822 40.204 91.602 41.057 L 91.602 41.057 L 91.602 41.057 Q 92.382 41.91 93.649 41.91 L 93.649 41.91 L 93.649 41.91 Q 95.647 41.91 97.159 40.764 L 97.159 40.764 L 97.159 40.764 Q 95.063 42.934 97.402 40.155 L 97.402 40.155 L 97.402 40.155 Q 97.987 39.473 98.718 39.473 L 98.718 39.473 Z "
              fill="none" stroke="#FFFFFF" stroke-width="1"/>
        <path class="path" d=" M 123.001 39.814 L 123.001 39.814 Q 123.634 39.814 124 40.399 L 124 40.399 L 124 40.399 Q 124.366 40.984 124.366 42.007 L 124.366 42.007 L 124.366 42.007 Q 124.366 43.957 123.439 45.03 L 123.439 45.03 L 123.439 45.03 Q 124.992 43.957 122.627 45.614 L 122.627 45.614 L 122.627 45.614 Q 120.263 47.272 117.241 47.272 L 117.241 47.272 L 117.241 47.272 Q 114.755 47.272 113.488 45.834 L 113.488 45.834 L 113.488 45.834 Q 112.221 44.396 112.221 41.666 L 112.221 41.666 L 112.221 41.666 Q 112.221 40.301 112.903 36.792 L 112.903 36.792 L 112.903 36.792 Q 113.537 33.721 113.537 32.551 L 113.537 32.551 L 113.537 32.551 Q 113.537 31.771 113 31.771 L 113 31.771 L 113 31.771 Q 112.367 31.771 111.197 33.404 L 111.197 33.404 L 111.197 33.404 Q 110.027 35.037 108.857 37.718 L 108.857 37.718 L 108.857 37.718 Q 107.687 40.399 106.956 43.372 L 106.956 43.372 L 106.956 43.372 Q 106.03 47.272 102.374 47.272 L 102.374 47.272 L 102.374 47.272 Q 100.912 47.272 100.449 46.224 L 100.449 46.224 L 100.449 46.224 Q 99.986 45.176 99.986 42.446 L 99.986 42.446 L 99.986 42.446 Q 99.986 40.886 100.034 39.96 L 100.034 39.96 L 100.083 36.061 L 100.083 36.061 Q 100.083 32.307 100.467 28.396 C 100.723 25.788 101.107 23.127 101.619 20.414 L 101.619 20.414 L 101.619 20.414 Q 103.154 12.273 106.152 6.741 L 106.152 6.741 L 106.152 6.741 Q 109.15 1.208 113.342 1.208 L 113.342 1.208 L 113.342 1.208 Q 115.584 1.208 116.973 3.134 L 116.973 3.134 L 116.973 3.134 Q 118.362 5.059 118.362 8.13 L 118.362 8.13 L 118.362 8.13 Q 118.362 13.053 115.486 18.342 L 115.486 18.342 L 115.486 18.342 Q 112.61 23.631 106.127 30.699 L 106.127 30.699 L 106.127 30.699 Q 105.981 33.233 105.981 35.914 L 105.981 35.914 L 105.981 35.914 Q 107.59 31.771 109.564 29.163 L 109.564 29.163 L 109.564 29.163 Q 111.538 26.555 113.463 25.434 L 113.463 25.434 L 113.463 25.434 Q 115.389 24.313 116.997 24.313 L 116.997 24.313 L 116.997 24.313 Q 120.166 24.313 120.166 27.482 L 120.166 27.482 L 120.166 27.482 Q 120.166 29.383 119.093 34.355 L 119.093 34.355 L 119.093 34.355 Q 118.167 38.595 118.167 39.96 L 118.167 39.96 L 118.167 39.96 Q 118.167 41.91 119.581 41.91 L 119.581 41.91 L 119.581 41.91 Q 120.556 41.91 121.896 40.716 L 121.896 40.716 L 121.896 40.716 Q 119.442 43.177 121.685 40.496 L 121.685 40.496 L 121.685 40.496 Q 122.27 39.814 123.001 39.814 L 123.001 39.814 Z "
              fill="none" stroke="#FFFFFF" stroke-width="1"/>
        <path class="path" d=" M 142.196 38.888 L 142.196 38.888 Q 142.829 38.888 143.195 39.473 L 143.195 39.473 L 143.195 39.473 Q 143.561 40.058 143.561 41.081 L 143.561 41.081 L 143.561 41.081 C 143.459 42.279 143.25 44.051 142.634 44.103 L 142.634 44.103 L 142.634 44.103 Q 143.763 43.321 141.296 45.419 L 141.296 45.419 L 141.296 45.419 Q 138.006 47.272 134.253 47.272 L 134.253 47.272 L 134.253 47.272 Q 129.135 47.272 126.308 44.493 L 126.308 44.493 L 126.308 44.493 Q 123.48 41.715 123.48 36.889 L 123.48 36.889 L 123.48 36.889 Q 123.48 33.526 124.894 30.626 L 124.894 30.626 L 124.894 30.626 Q 126.308 27.725 128.818 26.019 L 128.818 26.019 L 128.818 26.019 Q 131.328 24.313 134.497 24.313 L 134.497 24.313 L 134.497 24.313 Q 137.324 24.313 139.03 25.995 L 139.03 25.995 L 139.03 25.995 Q 140.736 27.677 140.736 30.552 L 140.736 30.552 L 140.736 30.552 Q 140.736 33.916 138.323 36.329 L 138.323 36.329 L 138.323 36.329 Q 135.91 38.742 130.158 40.155 L 130.158 40.155 L 130.158 40.155 Q 131.377 42.397 134.789 42.397 L 134.789 42.397 L 134.789 42.397 Q 136.983 42.397 139.785 40.862 L 139.785 40.862 L 139.785 40.862 Q 138.261 41.746 140.88 39.57 L 140.88 39.57 L 140.88 39.57 Q 141.465 38.888 142.196 38.888 L 142.196 38.888 Z "
              fill="none" stroke="#FFFFFF" stroke-width="1"/>

        <path class="path" d=" M 96.33 6.034 L 96.33 6.034 Q 95.209 6.034 93.795 10.08 L 93.795 10.08 L 93.795 10.08 Q 92.382 14.126 91.309 20.121 L 91.309 20.121 L 91.309 20.121 Q 90.237 26.117 90.139 31.625 L 90.139 31.625 L 90.139 31.625 Q 93.6 25.922 95.647 20.194 L 95.647 20.194 L 95.647 20.194 Q 97.695 14.467 97.695 9.739 L 97.695 9.739 L 97.695 9.739 Q 97.695 6.034 96.33 6.034 L 96.33 6.034 Z "
              fill="none" stroke="#FFFFFF" stroke-width="1"/>
        <path class="path" d=" M 112.318 6.034 L 112.318 6.034 Q 111.441 6.034 110.368 8.544 L 110.368 8.544 L 110.368 8.544 Q 109.296 11.055 108.297 15.32 L 108.297 15.32 L 108.297 15.32 Q 107.297 19.585 106.664 24.606 L 106.664 24.606 L 106.664 24.606 Q 109.686 21.047 111.66 16.855 L 111.66 16.855 L 111.66 16.855 Q 113.634 12.663 113.634 9.251 L 113.634 9.251 L 113.634 9.251 Q 113.634 7.691 113.293 6.863 L 113.293 6.863 L 113.293 6.863 Q 112.952 6.034 112.318 6.034 L 112.318 6.034 Z "
              fill="none" stroke="#FFFFFF" stroke-width="1"/>
        <path class="path" d=" M 146.829 47.272 L 146.829 47.272 Q 144.977 47.272 144.221 45.322 L 144.221 45.322 L 144.221 45.322 Q 143.466 43.372 143.466 39.083 L 143.466 39.083 L 143.466 39.083 Q 143.466 32.746 145.269 27.043 L 145.269 27.043 L 145.269 27.043 Q 145.708 25.629 146.707 24.971 L 146.707 24.971 L 146.707 24.971 Q 147.706 24.313 149.51 24.313 L 149.51 24.313 L 149.51 24.313 Q 150.485 24.313 150.875 24.557 L 150.875 24.557 L 150.875 24.557 Q 151.265 24.801 151.265 25.483 L 151.265 25.483 L 151.265 25.483 Q 151.265 26.263 150.534 28.993 L 150.534 28.993 L 150.534 28.993 Q 150.046 30.942 149.754 32.405 L 149.754 32.405 L 149.754 32.405 Q 149.461 33.867 149.266 36.012 L 149.266 36.012 L 149.266 36.012 Q 150.875 31.82 152.873 29.188 L 152.873 29.188 L 152.873 29.188 Q 154.872 26.555 156.797 25.434 L 156.797 25.434 L 156.797 25.434 Q 158.723 24.313 160.331 24.313 L 160.331 24.313 L 160.331 24.313 Q 163.5 24.313 163.5 27.482 L 163.5 27.482 L 163.5 27.482 Q 163.5 28.115 163.061 30.552 L 163.061 30.552 L 163.061 30.552 Q 162.671 32.502 162.671 32.99 L 162.671 32.99 L 162.671 32.99 Q 162.671 34.696 163.889 34.696 L 163.889 34.696 L 163.889 34.696 Q 161.087 36.792 163.231 34.647 L 163.231 34.647 L 163.231 34.647 Q 163.865 34.013 164.548 34.013 L 164.548 34.013 L 164.548 34.013 Q 164.913 34.013 165.279 34.574 L 165.279 34.574 L 165.279 34.574 Q 165.644 35.134 165.644 36.061 L 165.644 36.061 L 165.644 36.061 Q 165.912 37.864 164.937 38.888 L 164.937 38.888 L 164.937 38.888 Q 164.084 40.204 162.037 40.204 L 162.037 40.204 L 162.037 40.204 Q 159.454 40.204 158.113 38.888 L 158.113 38.888 L 158.113 38.888 Q 156.773 37.572 156.773 35.329 L 156.773 35.329 L 156.773 35.329 Q 156.773 34.598 156.919 33.867 L 156.919 33.867 L 156.919 33.867 Q 157.017 32.892 157.017 32.551 L 157.017 32.551 L 157.017 32.551 Q 157.017 31.771 156.48 31.771 L 156.48 31.771 L 156.48 31.771 Q 155.749 31.771 154.555 33.404 L 154.555 33.404 L 154.555 33.404 Q 153.361 35.037 152.191 37.718 L 152.191 37.718 L 152.191 37.718 Q 151.021 40.399 150.29 43.372 L 150.29 43.372 L 150.29 43.372 Q 149.754 45.663 149.047 46.467 L 149.047 46.467 L 149.047 46.467 Q 148.34 47.272 146.829 47.272 L 146.829 47.272 Z "
              fill="none" stroke="#FFFFFF" stroke-width="1"/>
        <path class="path" d=" M 133.668 29.09 L 133.668 29.09 Q 131.864 29.09 130.621 31.186 L 130.621 31.186 L 130.621 31.186 Q 129.379 33.282 129.379 36.256 L 129.379 36.256 L 129.379 36.353 L 129.379 36.353 Q 132.254 35.671 133.912 34.306 L 133.912 34.306 L 133.912 34.306 Q 135.569 32.941 135.569 31.137 L 135.569 31.137 L 135.569 31.137 Q 135.569 30.211 135.057 29.651 L 135.057 29.651 L 135.057 29.651 Q 134.545 29.09 133.668 29.09 L 133.668 29.09 Z "
              fill="none" stroke="#FFFFFF" stroke-width="1"/>
        <path class="path" d=" M 169.008 47.272 L 169.008 47.272 Q 167.155 47.272 166.4 45.322 L 166.4 45.322 L 166.4 45.322 Q 165.644 43.372 165.644 39.083 L 165.644 39.083 L 165.644 39.083 Q 165.644 32.746 167.448 27.043 L 167.448 27.043 L 167.448 27.043 Q 167.887 25.629 168.886 24.971 L 168.886 24.971 L 168.886 24.971 Q 169.885 24.313 171.689 24.313 L 171.689 24.313 L 171.689 24.313 Q 172.663 24.313 173.053 24.557 L 173.053 24.557 L 173.053 24.557 Q 173.443 24.801 173.443 25.483 L 173.443 25.483 L 173.443 25.483 Q 173.443 26.263 172.712 28.993 L 172.712 28.993 L 172.712 28.993 Q 172.225 30.942 171.932 32.38 L 171.932 32.38 L 171.932 32.38 Q 171.64 33.818 171.445 35.963 L 171.445 35.963 L 171.445 35.963 Q 172.761 32.161 174.589 29.529 L 174.589 29.529 L 174.589 29.529 Q 176.417 26.897 178.342 25.605 L 178.342 25.605 L 178.342 25.605 Q 180.268 24.313 181.974 24.313 L 181.974 24.313 L 181.974 24.313 Q 183.68 24.313 184.386 25.093 L 184.386 25.093 L 184.386 25.093 Q 185.093 25.873 185.093 27.482 L 185.093 27.482 L 185.093 27.482 Q 185.093 29.041 184.167 33.136 L 184.167 33.136 L 184.167 33.136 Q 183.777 34.891 183.631 35.768 L 183.631 35.768 L 183.631 35.768 Q 186.068 29.773 189.042 27.043 L 189.042 27.043 L 189.042 27.043 Q 192.015 24.313 194.598 24.313 L 194.598 24.313 L 194.598 24.313 Q 197.767 24.313 197.767 27.482 L 197.767 27.482 L 197.767 27.482 Q 197.767 29.383 196.694 34.355 L 196.694 34.355 L 196.694 34.355 Q 195.768 38.595 195.768 39.96 L 195.768 39.96 L 195.768 39.96 Q 195.768 41.91 197.182 41.91 L 197.182 41.91 L 197.182 41.91 C 197.516 41.969 197.836 42.219 199.124 40.789 L 199.124 40.789 L 199.124 40.789 Q 199.709 40.106 200.44 40.106 L 200.44 40.106 L 200.44 40.106 Q 201.074 40.106 201.439 40.691 L 201.439 40.691 L 201.439 40.691 Q 201.805 41.276 201.805 42.3 L 201.805 42.3 L 201.805 42.3 Q 200.669 45.379 200.326 45.614 L 200.326 45.614 L 200.326 45.614 Q 197.913 47.272 194.842 47.272 L 194.842 47.272 L 194.842 47.272 Q 192.356 47.272 191.089 45.834 L 191.089 45.834 L 191.089 45.834 Q 189.821 44.396 189.821 41.666 L 189.821 41.666 L 189.821 41.666 Q 189.821 40.301 190.504 36.792 L 190.504 36.792 L 190.504 36.792 Q 191.138 33.721 191.138 32.551 L 191.138 32.551 L 191.138 32.551 Q 191.138 31.771 190.601 31.771 L 190.601 31.771 L 190.601 31.771 Q 189.968 31.771 188.798 33.404 L 188.798 33.404 L 188.798 33.404 Q 187.628 35.037 186.458 37.718 L 186.458 37.718 L 186.458 37.718 Q 185.288 40.399 184.557 43.372 L 184.557 43.372 L 184.557 43.372 Q 184.021 45.712 183.314 46.492 L 183.314 46.492 L 183.314 46.492 Q 182.607 47.272 181.047 47.272 L 181.047 47.272 L 181.047 47.272 Q 179.439 47.272 178.635 45.736 L 178.635 45.736 L 178.635 45.736 Q 177.83 44.201 177.83 42.007 L 177.83 42.007 L 177.83 42.007 Q 177.83 40.155 178.318 36.646 L 178.318 36.646 L 178.318 36.646 Q 178.708 33.526 178.708 32.551 L 178.708 32.551 L 178.708 32.551 Q 178.708 31.771 178.172 31.771 L 178.172 31.771 L 178.172 31.771 Q 177.44 31.771 176.319 33.526 L 176.319 33.526 L 176.319 33.526 Q 175.198 35.281 174.15 38.01 L 174.15 38.01 L 174.15 38.01 Q 173.102 40.74 172.468 43.372 L 172.468 43.372 L 172.468 43.372 Q 171.932 45.663 171.225 46.467 L 171.225 46.467 L 171.225 46.467 Q 170.519 47.272 169.008 47.272 L 169.008 47.272 Z "
              fill="none" stroke="#FFFFFF" stroke-width="1"/>
        <path class="path" d=" M 211.269 29.09 L 211.269 29.09 Q 209.465 29.09 208.222 31.186 L 208.222 31.186 L 208.222 31.186 Q 206.979 33.282 206.979 36.256 L 206.979 36.256 L 206.979 36.353 L 206.979 36.353 Q 209.855 35.671 211.513 34.306 L 211.513 34.306 L 211.513 34.306 Q 213.17 32.941 213.17 31.137 L 213.17 31.137 L 213.17 31.137 Q 213.17 30.211 212.658 29.651 L 212.658 29.651 L 212.658 29.651 Q 212.146 29.09 211.269 29.09 L 211.269 29.09 Z "
              fill="none" stroke="#FFFFFF" stroke-width="1"/>
        <path class="path" d=" M 223.553 36.158 L 223.553 36.158 Q 224.186 36.158 224.552 36.743 L 224.552 36.743 L 224.552 36.743 Q 224.917 37.328 224.917 38.352 L 224.917 38.352 L 224.917 38.352 Q 224.917 40.301 223.991 41.374 L 223.991 41.374 L 223.991 41.374 Q 222.188 43.567 218.897 45.419 L 218.897 45.419 L 218.897 45.419 Q 215.607 47.272 211.854 47.272 L 211.854 47.272 L 211.854 47.272 Q 206.736 47.272 203.909 44.493 L 203.909 44.493 L 203.909 44.493 Q 201.081 41.715 201.081 36.889 L 201.081 36.889 L 201.081 36.889 Q 201.081 33.526 202.495 30.626 L 202.495 30.626 L 202.495 30.626 Q 203.909 27.725 206.419 26.019 L 206.419 26.019 L 206.419 26.019 Q 208.929 24.313 212.098 24.313 L 212.098 24.313 L 212.098 24.313 Q 214.925 24.313 216.631 25.995 L 216.631 25.995 L 216.631 25.995 Q 218.337 27.677 218.337 30.552 L 218.337 30.552 L 218.337 30.552 Q 218.337 33.916 215.924 36.329 L 215.924 36.329 L 215.924 36.329 Q 213.511 38.742 207.759 40.155 L 207.759 40.155 L 207.759 40.155 Q 208.978 42.397 212.39 42.397 L 212.39 42.397 L 212.39 42.397 Q 214.584 42.397 217.386 40.862 L 217.386 40.862 L 217.386 40.862 Q 220.189 39.326 222.236 36.84 L 222.236 36.84 L 222.236 36.84 Q 222.821 36.158 223.553 36.158 L 223.553 36.158 Z "
              fill="none" stroke="#FFFFFF" stroke-width="1"/>
    </g>
</svg>