<?xml version="1.0" encoding="UTF-8" standalone="no"?><!-- Generator: Gravit.io --><svg xmlns="http://www.w3.org/2000/svg" xmlns:xlink="http://www.w3.org/1999/xlink" style="isolation:isolate" viewBox="0 0 100 100" width="100pt" height="100pt"><defs><clipPath id="_clipPath_xqysx1qEOk4qbNZHpIz9yjaqKPgOdZQs"><rect width="100" height="100"/></clipPath></defs><g clip-path="url(#_clipPath_xqysx1qEOk4qbNZHpIz9yjaqKPgOdZQs)"><g style="isolation:isolate"><rect x="0" y="0" width="100" height="100" transform="matrix(1,0,0,1,0,0)" fill="none"/></g><g style="isolation:isolate"><path d=" M 69.5 22.4 C 72.9 25.9 73.7 29.6 71.6 33.5 C 70.613 35.259 68.576 37.811 66.438 40.15 C 64.928 41.803 63.367 43.35 62.09 44.437 C 60.962 45.398 60.055 46 59.6 46 C 58.8 46 57.5 44.4 56.5 42.4 C 54.4 38 55 36.4 60.9 29.6 C 67 22.6 66.5 21.2 59.6 25.9 C 52.9 30.6 48.4 36.2 43.6 46.3 C 39.4 55 35.5 66.8 36.4 67.8 C 37.7 69.1 41.4 66.1 47.1 59 C 50.6 54.7 54.3 51.1 55.2 51 C 56.1 51 58.1 52 59.5 53.2 L 62.1 55.5 L 56 67.5 C 52.6 74.1 49.5 79.8 49.1 80.2 C 48.2 81.2 42.3 78.1 41.6 76.4 C 41.3 75.5 41.7 73.3 42.5 71.4 L 43.9 68 L 40.6 70.5 C 36.1 73.9 33.4 73.7 29.4 69.4 C 24.8 64.6 25 61.3 30.4 50.4 C 35.8 39.7 40.3 34.3 48.2 28.9 C 54.4 24.7 63.6 20 65.8 20 C 66.5 20 68.2 21.1 69.5 22.4 Z " fill="rgb(0,0,0)"/></g></g></svg>